<?xml version="1.0" encoding="UTF-8"?>
<svg width="24px" height="20px" viewBox="0 0 24 20" version="1.1" xmlns="http://www.w3.org/2000/svg" xmlns:xlink="http://www.w3.org/1999/xlink">
    <!-- Generator: Sketch 64 (93537) - https://sketch.com -->
    <title>refresh</title>
    <desc>Created with Sketch.</desc>
    <defs>
        <path d="M13.08272,0.01255 C18.57,0.01255 23.03694,4.47479 23.03694,9.96677 C23.03694,15.458759 18.57,19.9209953 13.08743,19.9209953 C10.43077,19.9209953 7.933989,18.886546 6.053172,17.00573 C5.803964,16.756522 5.803964,16.356848 6.053172,16.10764 C6.30238,15.858432 6.702054,15.858432 6.951262,16.10764 C8.587572,17.748652 10.76932,18.651444 13.08743,18.651444 C17.8741,18.651444 21.76739,14.758154 21.76739,9.96677 C21.76739,5.1754 17.8694,1.28211 13.08272,1.28211 C8.296046,1.28211 4.402756,5.1754 4.402756,9.96677 L4.402756,9.96677 L4.402756,10.013795 L7.040601,7.62986 C7.303915,7.39476 7.703589,7.41827 7.938691,7.67688 C8.173793,7.9402 8.150282,8.33987 7.89167,8.57497 L7.89167,8.57497 L3.918446,12.153224 C3.800895,12.261371 3.650429,12.317795 3.495262,12.317795 C3.46705,12.317795 3.44354,12.317795 3.415327,12.313093 C3.231948,12.289583 3.067376,12.19084 2.963931,12.035673 L2.963931,12.035673 L0.1050906,7.73331 C-0.08769306,7.44178 -0.007758367,7.04681 0.2837682,6.85402 C0.5752947,6.66124 0.9702661,6.74117 1.16305,7.0327 L1.16305,7.0327 L3.133205,9.99969 L3.133205,9.96677 C3.133205,4.47949 7.595442,0.01255 13.08272,0.01255 Z" id="path-1"></path>
    </defs>
    <g id="refresh" stroke="none" stroke-width="1" fill="none" fill-rule="evenodd">
        <mask id="mask-2" fill="white">
            <use xlink:href="#path-1"></use>
        </mask>
        <g id="Clip-2"></g>
        <polygon id="Fill-1" fill="#09BCC4" mask="url(#mask-2)" points="-4.999991 -4.98745 28.03694 -4.98745 28.03694 24.920995 -4.999991 24.920995"></polygon>
    </g>
</svg>